# xmcd CD database file
#
# Track frame offsets:
#	150
#	35243
#	78801
#	123753
#	157032
#	196035
#	230457
#
# Disc length: 3489 seconds
#
# Revision: 0
# Processed by: cddbd v1.5.2PL0 Copyright (c) Steve Scherf et al.
# Submitted via: CDex 2.08
#
DISCID=4d0d9f07
DTITLE=Alan Ferber Big Band - Jigsaw
DYEAR=2018
DGENRE=Jazz
TTITLE0=Impulso  
TTITLE1=She Won't Look Back
TTITLE2=Jigsaw 
TTITLE3=North Rampart
TTITLE4=Get Sassy
TTITLE5=Lost In The Hours
TTITLE6=Late Bloomer  
EXTD=YEAR: 2018
EXTT0=
EXTT1=
EXTT2=
EXTT3=
EXTT4=
EXTT5=
EXTT6=
PLAYORDER=
